<svg width="125" height="125" viewBox="0 0 125 125" fill="none" xmlns="http://www.w3.org/2000/svg">
<rect y="0.00012207" width="125" height="125" rx="25" fill="white"/>
<path d="M64.161 25.9441C63.5832 25.8518 63.6509 25 64.2358 25H99.8121C100.468 25 101 25.5317 101 26.1875V61.7638C101 62.3488 100.148 62.4165 100.056 61.8386L95.384 32.5865C95.222 31.5726 94.4271 30.7777 93.4132 30.6157L64.161 25.9441Z" fill="black" stroke="black" stroke-width="2" stroke-linecap="round"/>
<path d="M21.411 68.6941C20.8332 68.6017 20.9008 67.75 21.4859 67.75H57.0621C57.7178 67.75 58.2496 68.2818 58.2496 68.9375V104.514C58.2496 105.099 57.3979 105.166 57.3055 104.589L52.6339 75.3365C52.4719 74.3226 51.677 73.5277 50.6631 73.3657L21.411 68.6941Z" fill="black" stroke="black" stroke-width="2" stroke-linecap="round"/>
<path d="M42.786 47.3191C42.2082 47.2267 42.2759 46.375 42.8608 46.375H78.4371C79.0929 46.375 79.6246 46.9068 79.6246 47.5625V83.1388C79.6246 83.7238 78.773 83.7915 78.6806 83.2136L74.2804 55.6608C73.9565 53.6332 72.3664 52.0432 70.3389 51.7192L42.786 47.3191Z" fill="black" stroke="black" stroke-width="2" stroke-linecap="round"/>
</svg>
