<svg width="125" height="125" viewBox="0 0 125 125" fill="none" xmlns="http://www.w3.org/2000/svg">
<rect y="0.00012207" width="125" height="125" rx="25" fill="white"/>
<path d="M80.51 61.7247C74.8008 68.1762 70.3995 75.6158 67.7665 83.2013C65.8961 88.4689 64.917 93.95 64.5561 99.2221L64.4975 103.019L64.5547 104.144L66.6252 102.814C66.7403 102.603 66.8697 102.674 67.1142 102.534C67.603 102.254 67.9626 101.904 68.5665 101.414L69.7744 100.433L69.818 98.8159C69.8037 98.5346 69.7751 97.972 69.8758 97.4802C70.0066 92.6293 71.0143 87.7107 72.7839 82.935C74.9853 76.7544 78.4517 70.7181 83.2118 65.3888C87.1378 60.971 94.1993 51.43 97.7543 37.2383L97.8551 36.7464L97.8122 35.9026C97.6828 35.8319 97.7979 35.6213 97.7836 35.34C97.5827 33.8629 97.3819 32.3859 96.9366 31.0487L95.2275 24.6456L93.8739 32.6567C91.8292 44.3922 87.528 53.8007 80.51 61.7247Z" fill="#070707"/>
<path d="M50.7723 82.9392C52.9737 76.7586 56.4401 70.7224 61.2002 65.393C66.4349 59.5026 78.07 43.4365 77.9189 18.1954L77.7044 13.9763L77.6901 13.695L77.6329 12.5699L76.7559 12.6376C76.1234 12.5654 75.2464 12.6331 74.3694 12.7009L71.9829 12.7641L72.1258 15.5768C72.2695 15.9288 72.1687 16.4207 72.1973 16.9832C72.9558 29.43 71.082 47.0016 58.4841 61.4477C52.7749 67.8992 48.3736 75.3388 45.7406 82.9243C43.2226 90.2992 42.1999 97.3973 42.3129 104.569L42.1835 104.498L42.5274 108.788C42.6568 108.859 42.5417 109.069 42.556 109.351L42.5989 110.195L43.2314 110.267C43.9933 110.41 44.8703 110.342 45.6322 110.485L48.3926 110.352L47.8615 107.328C47.7178 106.976 47.8186 106.484 47.6749 106.132C47.6334 100.366 47.4775 92.3507 50.7723 82.9392Z" fill="#070707"/>
<path d="M37.2827 102.093C36.8245 95.5533 37.8758 89.0178 40.0628 82.5559C42.2641 76.3753 45.7305 70.339 50.4906 65.0097C65.1162 48.39 67.1058 28.1471 67.2665 18.9372L67.0806 15.2806L67.1385 13.9449L65.902 14.3631C65.1687 14.7828 64.4211 14.9212 63.5584 15.2701L61.833 15.9681L61.9331 17.9371C61.9474 18.2183 61.976 18.7809 61.9903 19.0622C62.3321 30.7343 60.1566 47.3207 48.019 60.9245C42.3098 67.376 37.9085 74.8156 35.2755 82.4011C33.6352 87.2475 32.6275 92.1661 32.0078 97.2968L31.7906 102.921C31.8192 103.483 31.8335 103.765 31.8621 104.327L31.8907 104.89L32.2788 105.102C33.0694 105.807 33.9749 106.302 34.6361 106.937L37.7552 108.915L37.3828 104.062C37.3542 103.5 37.1962 102.866 37.2827 102.093Z" fill="#070707"/>
<path d="M92.6431 60.424L93.1892 61.2694L92.6431 60.424C92.1685 60.9851 91.809 61.3355 91.3344 61.8966C85.6252 68.348 81.2239 75.7877 78.5909 83.3732C78.0441 84.9887 77.4974 86.6041 77.08 88.2903L75.7413 94.1219L75.439 95.5975L78.646 91.8806C79.5952 90.7585 80.5443 89.6364 81.4935 88.5143L81.9681 87.9533L82.1839 87.2508C82.3998 86.5483 82.4862 85.7752 82.8314 85.1435C83.0616 84.7223 83.1624 84.2304 83.2631 83.7386C85.2486 78.2604 88.2404 72.7852 92.6267 67.5251C93.1013 66.9641 93.4609 66.6136 93.9354 66.0525L94.7695 65.141L94.9853 64.4385C95.5321 62.8231 96.1939 60.997 96.4963 59.5214L98.4245 52.9182L94.1819 58.5303C93.7073 59.0913 93.1177 59.863 92.6431 60.424Z" fill="#070707"/>
<path d="M83.4685 13.5726L83.683 17.7917C83.7116 18.3542 83.7402 18.9167 83.7688 19.4793C84.0963 30.8702 81.9351 47.7378 69.7975 61.3416C64.0883 67.7931 59.687 75.2327 57.054 82.8182C54.6511 89.9825 53.499 97.01 53.7271 103.971L54.0423 107.698L54.2289 108.894L55.4654 108.476C56.3281 108.127 56.9464 107.918 57.694 107.78L59.5487 107.152L59.1899 105.042C59.1756 104.761 59.147 104.198 59.1327 103.917C58.5308 97.0249 59.4527 90.4186 61.8699 83.5356C64.0712 77.355 67.5376 71.3188 72.2977 65.9894C76.3388 61.3611 79.7188 56.0979 82.3225 50.4107C86.9689 40.3704 88.8986 28.8455 89.0593 19.6356C89.0307 19.0731 89.1315 18.5812 89.1029 18.0187L89.06 17.1748L88.6719 16.9627C87.8957 16.5386 87.1052 15.8332 86.329 15.409L83.4685 13.5726Z" fill="#070707"/>
<path d="M27.8402 87.0899L26.7188 87.2975L27.8402 87.0899C28.1426 85.6143 28.6893 83.9988 29.121 82.5939C31.3223 76.4133 34.7888 70.3771 39.5489 65.0477C42.6408 61.5415 45.2152 57.7525 47.6317 53.3302C52.4647 44.4857 55.3571 34.5808 56.0932 24.318L56.2668 20.3109L56.3247 18.9752L54.3835 20.3756C53.6501 20.7953 52.8018 21.4256 52.0827 22.1265L50.8748 23.1073L50.817 24.443C50.7162 24.9348 50.8598 25.2868 50.7591 25.7787C49.8351 39.7673 45.1594 51.7058 36.9479 60.8918C31.1236 67.5539 26.5929 74.9228 23.8734 83.2815C23.6575 83.9839 23.4417 84.6863 23.1108 85.5994L23.01 86.0912L23.0529 86.9351C23.1823 87.0057 23.0672 87.2163 23.0815 87.4976C23.3974 88.7641 23.4689 90.1705 23.7849 91.437L25.3502 97.4881L26.8475 89.8289C27.4229 88.776 27.6244 87.7923 27.8402 87.0899Z" fill="#070707"/>
<path d="M28.4793 65.0152L28.9539 64.4542C31.0966 62.0701 34.0449 58.2118 36.9217 52.9472C39.9135 47.472 42.0141 41.7833 43.5971 35.8118L45.2238 28.2233L41.9017 32.1507C40.9526 33.2728 40.0034 34.395 39.0685 35.7984L38.7233 36.4301L38.5075 37.1325C38.2916 37.835 38.2052 38.6082 37.9893 39.3106C35.9603 46.4057 32.7669 52.8646 28.3949 58.406C27.9203 58.9671 27.4457 59.5281 26.9711 60.0892L26.4965 60.6502L26.2807 61.3527C25.849 62.7576 25.4173 64.1625 25.115 65.638L23.7621 71.1884L27.4293 66.6292C27.5301 66.1373 28.0047 65.5763 28.4793 65.0152Z" fill="#070707"/>
</svg>
